<svg width="72" height="72" viewBox="0 0 72 72" fill="none" xmlns="http://www.w3.org/2000/svg">
<circle cx="36" cy="36" r="36" fill="#28405D"/>
<path d="M36.3208 23.0033C40.1597 23.1099 43.644 24.3886 46.7511 26.9148C49.543 29.184 51.5919 32.1176 52.9316 35.6656C53.016 35.8912 53.0273 36.0856 52.9372 36.3175C51.1304 41.0627 48.1639 44.6107 44.0323 46.9237C42.1523 47.9768 40.1484 48.6099 38.0488 48.8669C34.5589 49.2995 31.2323 48.6789 28.0745 46.9864C25.1869 45.4381 22.8284 43.1814 20.9877 40.2541C20.1997 39.0004 19.5411 37.6715 19.0401 36.2485C18.9895 36.1044 18.9838 35.8975 19.0401 35.7533C21.2016 30.0678 24.8885 26.1689 30.1009 24.094C31.9471 23.3543 33.9454 22.9594 36.3208 23.0033Z" fill="white"/>
<circle cx="36.5" cy="36.5" r="7.5" fill="#28405D"/>
<path fill-rule="evenodd" clip-rule="evenodd" d="M36.0377 29.0218C36.2247 29.0074 36.4137 29 36.6044 29C40.6117 29 43.8603 32.2485 43.8603 36.2558C43.8603 36.5069 43.8475 36.755 43.8226 36.9996C43.6356 37.014 43.4466 37.0214 43.2558 37.0214C39.2485 37.0214 36 33.7729 36 29.7656C36 29.5145 36.0128 29.2663 36.0377 29.0218Z" fill="#506F95"/>
</svg>
