<svg width="72" height="72" viewBox="0 0 72 72" fill="none" xmlns="http://www.w3.org/2000/svg">
<circle cx="36" cy="36" r="36" fill="#F5F5DC"/>
<path d="M52.5 30.5H41.5V54.3333H37.8333V43.3333H34.1667V54.3333H30.5V30.5H19.5V26.8333H52.5M36 17.6667C36.9725 17.6667 37.9051 18.053 38.5927 18.7406C39.2804 19.4282 39.6667 20.3609 39.6667 21.3333C39.6667 22.3058 39.2804 23.2384 38.5927 23.926C37.9051 24.6137 36.9725 25 36 25C35.0275 25 34.0949 24.6137 33.4073 23.926C32.7196 23.2384 32.3333 22.3058 32.3333 21.3333C32.3333 19.2983 33.965 17.6667 36 17.6667Z" fill="#006400"/>
</svg>
